<svg width="20" height="21" viewBox="0 0 20 21" fill="none" xmlns="http://www.w3.org/2000/svg">
<g id="Info" clip-path="url(#clip0_741_1695)">
<path id="Vector" d="M9.1665 6.33331H10.8332V7.99997H9.1665V6.33331ZM9.1665 9.66664H10.8332V14.6666H9.1665V9.66664ZM9.99984 2.16664C5.39984 2.16664 1.6665 5.89997 1.6665 10.5C1.6665 15.1 5.39984 18.8333 9.99984 18.8333C14.5998 18.8333 18.3332 15.1 18.3332 10.5C18.3332 5.89997 14.5998 2.16664 9.99984 2.16664ZM9.99984 17.1666C6.32484 17.1666 3.33317 14.175 3.33317 10.5C3.33317 6.82497 6.32484 3.83331 9.99984 3.83331C13.6748 3.83331 16.6665 6.82497 16.6665 10.5C16.6665 14.175 13.6748 17.1666 9.99984 17.1666Z" fill="#2115A8"/>
</g>
<defs>
<clipPath id="clip0_741_1695">
<rect width="20" height="20" fill="white" transform="translate(0 0.5)"/>
</clipPath>
</defs>
</svg>
