<?xml version="1.0" encoding="UTF-8"?>
<svg width="255px" height="60px" viewBox="0 0 255 60" version="1.1" xmlns="http://www.w3.org/2000/svg" xmlns:xlink="http://www.w3.org/1999/xlink">
    <title>logo</title>
    <defs>
        <polygon id="path-1" points="0 59.441 254.121 59.441 254.121 0 0 0"></polygon>
        <polygon id="path-3" points="0 0 59.4402482 0 59.4402482 59.441 0 59.441"></polygon>
    </defs>
    <g id="logo" stroke="none" stroke-width="1" fill="none" fill-rule="evenodd">
        <g id="Group-27">
            <g id="Group-20">
                <path d="M91.9371,24.5039 L89.0891,26.2489 C88.1511,24.8129 86.6441,23.9579 84.7931,23.9579 C81.7781,23.9579 79.5471,26.1649 79.5471,29.3939 C79.5591,32.7279 81.8611,34.8289 84.7931,34.8289 C86.6321,34.8289 88.1271,33.9979 89.1241,32.5499 L91.8301,34.4969 C90.3591,36.6569 87.8541,38.0099 84.8161,38.0099 C79.7041,38.0099 76.0961,34.3899 76.0961,29.3939 C76.0961,24.3969 79.7041,20.7799 84.8161,20.7799 C87.8781,20.7799 90.5841,22.1809 91.9371,24.5039" id="Fill-1" fill="#28348A"></path>
                <path d="M96.7111,31.9451 C96.7111,33.7021 97.8621,35.1141 99.6781,35.1141 C101.4461,35.1141 102.6451,33.7611 102.6451,31.9451 C102.6451,30.1291 101.4461,28.7761 99.6781,28.7761 C97.8621,28.7761 96.7111,30.1891 96.7111,31.9451 L96.7111,31.9451 Z M105.5731,37.7011 L102.5471,37.7011 L102.5471,36.4311 C101.7991,37.3571 100.6841,37.9981 99.1051,37.9981 C95.9371,37.9981 93.5391,35.3991 93.5391,31.9451 C93.5391,28.4921 95.9371,25.8921 99.1051,25.8921 C100.6841,25.8921 101.7871,26.5331 102.5471,27.4711 L102.5471,26.2011 L105.5731,26.2011 L105.5731,37.7011 Z" id="Fill-3" fill="#28348A"></path>
                <path d="M116.6816,26.1418 L116.2186,29.2158 C115.7086,28.9898 114.9726,28.8478 114.3436,28.8478 C112.9076,28.8478 111.9226,29.7258 111.9226,31.4348 L111.9226,37.7008 L108.8256,37.7008 L108.8256,26.2008 L111.8276,26.2008 L111.8276,27.4588 C112.5516,26.3788 113.6556,25.8928 115.0676,25.8928 C115.7326,25.8928 116.2546,25.9878 116.6816,26.1418" id="Fill-5" fill="#28348A"></path>
                <path d="M120.8619,31.9452 C120.8619,33.7012 122.0129,35.1142 123.8289,35.1142 C125.5969,35.1142 126.7959,33.7612 126.7959,31.9452 C126.7959,30.1292 125.5969,28.7762 123.8289,28.7762 C122.0129,28.7762 120.8619,30.1892 120.8619,31.9452 M126.6389,27.4002 L126.6389,20.6142 L129.7239,20.6142 L129.7239,37.7012 L126.6979,37.7012 L126.6979,36.4312 C125.9499,37.3572 124.8349,37.9982 123.2559,37.9982 C120.0879,37.9982 117.6899,35.3992 117.6899,31.9452 C117.6899,28.4912 120.0879,25.8922 123.2559,25.8922 C124.8019,25.8922 125.8909,26.4982 126.6389,27.4002" id="Fill-7" fill="#28348A"></path>
                <mask id="mask-2" fill="white">
                    <use xlink:href="#path-1"></use>
                </mask>
                <g id="Clip-10"></g>
                <path d="M132.979,37.701 L136.077,37.701 L136.077,26.201 L132.979,26.201 L132.979,37.701 Z M136.492,22.442 C136.492,23.558 135.626,24.412 134.51,24.412 C133.394,24.412 132.54,23.558 132.54,22.442 C132.54,21.326 133.394,20.448 134.51,20.448 C135.626,20.448 136.492,21.326 136.492,22.442 L136.492,22.442 Z" id="Fill-9" fill="#28348A" mask="url(#mask-2)"></path>
                <path d="M141.7728,31.9451 C141.7728,33.8081 143.0778,35.1141 144.8228,35.1141 C146.5678,35.1141 147.8848,33.8081 147.8848,31.9451 C147.8848,30.0821 146.5678,28.7761 144.8228,28.7761 C143.0778,28.7761 141.7728,30.0821 141.7728,31.9451 M151.0508,31.9451 C151.0508,35.4101 148.4038,37.9981 144.8198,37.9981 C141.2478,37.9981 138.6128,35.4101 138.6128,31.9451 C138.6128,28.4801 141.2478,25.8921 144.8198,25.8921 C148.4038,25.8921 151.0508,28.4801 151.0508,31.9451" id="Fill-11" fill="#28348A" mask="url(#mask-2)"></path>
                <polygon id="Fill-12" fill="#28348A" mask="url(#mask-2)" points="172.1278 37.7009 159.7168 37.7009 159.7168 21.0889 172.0328 21.0889 172.0328 24.1269 163.0278 24.1269 163.0278 27.8059 171.6208 27.8059 171.6208 30.8439 163.0278 30.8439 163.0278 34.6659 172.1308 34.6659 172.1308 37.7009"></polygon>
                <polygon id="Fill-13" fill="#28348A" mask="url(#mask-2)" points="182.1565 31.8501 186.3455 37.7011 182.6665 37.7011 180.0795 34.0461 177.5395 37.7011 173.9555 37.7011 178.1805 31.8621 174.0655 26.2011 177.7445 26.2011 180.2245 29.7731 182.6925 26.2011 186.2775 26.2011"></polygon>
                <path d="M191.2239,31.9451 C191.2239,33.7611 192.4219,35.1141 194.1789,35.1141 C196.0069,35.1141 197.1459,33.7021 197.1459,31.9451 C197.1459,30.1891 196.0069,28.7761 194.1789,28.7761 C192.4219,28.7761 191.2239,30.1291 191.2239,31.9451 M200.3269,31.9451 C200.3269,35.3991 197.9289,37.9981 194.7609,37.9981 C193.2169,37.9981 192.1259,37.3921 191.3779,36.5021 L191.3779,42.4481 L188.2919,42.4481 L188.2919,26.2011 L191.3189,26.2011 L191.3189,27.4711 C192.0659,26.5331 193.1689,25.8921 194.7479,25.8921 C197.9289,25.8921 200.3269,28.4921 200.3269,31.9451" id="Fill-14" fill="#28348A" mask="url(#mask-2)"></path>
                <polygon id="Fill-15" fill="#28348A" mask="url(#mask-2)" points="202.854 37.701 205.951 37.701 205.951 20.614 202.854 20.614"></polygon>
                <path d="M211.6481,31.9451 C211.6481,33.8081 212.9531,35.1141 214.6981,35.1141 C216.4421,35.1141 217.7601,33.8081 217.7601,31.9451 C217.7601,30.0821 216.4421,28.7761 214.6981,28.7761 C212.9531,28.7761 211.6481,30.0821 211.6481,31.9451 M220.9281,31.9451 C220.9281,35.4101 218.2811,37.9981 214.6981,37.9981 C211.1251,37.9981 208.4911,35.4101 208.4911,31.9451 C208.4911,28.4801 211.1251,25.8921 214.6981,25.8921 C218.2811,25.8921 220.9281,28.4801 220.9281,31.9451" id="Fill-16" fill="#28348A" mask="url(#mask-2)"></path>
                <path d="M231.2208,26.1418 L230.7588,29.2158 C230.2478,28.9898 229.5118,28.8478 228.8838,28.8478 C227.4478,28.8478 226.4618,29.7258 226.4618,31.4348 L226.4618,37.7008 L223.3638,37.7008 L223.3638,26.2008 L226.3678,26.2008 L226.3678,27.4588 C227.0908,26.3788 228.1948,25.8928 229.6068,25.8928 C230.2718,25.8928 230.7938,25.9878 231.2208,26.1418" id="Fill-17" fill="#28348A" mask="url(#mask-2)"></path>
                <path d="M235.5258,30.8653 L240.6168,30.8653 C240.3328,29.3933 239.4418,28.5633 238.1128,28.5633 C236.6538,28.5633 235.7988,29.4413 235.5258,30.8653 M243.7268,31.9333 C243.7268,32.2893 243.7028,32.7163 243.6668,32.9773 L235.5148,32.9773 C235.8458,34.6393 237.0088,35.3633 238.4688,35.3633 C239.4658,35.3633 240.5468,34.9593 241.3768,34.2593 L243.1918,36.2533 C241.8868,37.4523 240.2248,37.9983 238.2908,37.9983 C234.7658,37.9983 232.3218,35.6003 232.3218,31.9813 C232.3218,28.3613 234.6958,25.8923 238.1368,25.8923 C241.4478,25.8923 243.7148,28.3493 243.7268,31.9333" id="Fill-18" fill="#28348A" mask="url(#mask-2)"></path>
                <path d="M254.1208,26.1418 L253.6588,29.2158 C253.1478,28.9898 252.4118,28.8478 251.7838,28.8478 C250.3478,28.8478 249.3618,29.7258 249.3618,31.4348 L249.3618,37.7008 L246.2638,37.7008 L246.2638,26.2008 L249.2678,26.2008 L249.2678,27.4588 C249.9908,26.3788 251.0948,25.8928 252.5068,25.8928 C253.1718,25.8928 253.6938,25.9878 254.1208,26.1418" id="Fill-19" fill="#28348A" mask="url(#mask-2)"></path>
            </g>
            <g id="Group-26">
                <path d="M4.9369,19.4347 C4.3109,19.4347 3.6759,19.2777 3.0919,18.9467 C1.2899,17.9267 0.6569,15.6377 1.6779,13.8357 C4.7149,8.4727 9.2009,4.1147 14.6489,1.2327 C16.4819,0.2647 18.7489,0.9637 19.7179,2.7937 C20.6859,4.6247 19.9869,6.8937 18.1559,7.8627 C13.9759,10.0737 10.5339,13.4177 8.2029,17.5327 C7.5129,18.7507 6.2439,19.4347 4.9369,19.4347" id="Fill-21" fill="#28348A"></path>
                <g id="Group-25">
                    <mask id="mask-4" fill="white">
                        <use xlink:href="#path-3"></use>
                    </mask>
                    <g id="Clip-24"></g>
                    <path d="M29.767,59.441 C24.755,59.441 19.755,58.172 15.358,55.747 C9.782,52.67 5.265,47.781 2.638,41.978 C0.011,36.176 -0.682,29.556 0.685,23.335 C0.834,22.662 1.502,22.234 2.175,22.383 C2.849,22.531 3.275,23.198 3.127,23.872 C1.874,29.569 2.51,35.633 4.915,40.947 C7.321,46.261 11.458,50.74 16.566,53.557 C21.672,56.376 27.664,57.488 33.446,56.689 C39.225,55.89 44.693,53.194 48.845,49.096 C52.996,44.999 55.764,39.566 56.638,33.798 C57.512,28.031 56.478,22.023 53.727,16.878 C50.976,11.735 46.552,7.539 41.27,5.064 C35.988,2.589 29.933,1.876 24.22,3.053 C23.543,3.19 22.882,2.758 22.743,2.082 C22.603,1.405 23.038,0.744 23.715,0.605 C29.952,-0.682 36.563,0.099 42.33,2.8 C48.098,5.503 52.928,10.084 55.932,15.7 C58.935,21.316 60.064,27.877 59.11,34.173 C58.156,40.47 55.134,46.402 50.6,50.876 C46.068,55.349 40.098,58.294 33.788,59.166 C32.455,59.35 31.11,59.441 29.767,59.441" id="Fill-23" fill="#28348A" mask="url(#mask-4)"></path>
                </g>
            </g>
        </g>
    </g>
</svg>