<svg width="220" height="60" fill="none" xmlns="http://www.w3.org/2000/svg"><path d="M19.116 42.632H0v-25.79h18.967v4.737H5.077v5.714h13.218v4.737H5.078v5.94h14.038v4.662zm21.282-13.083l8.737 13.083H43.16l-5.824-9.173-5.974 9.173h-5.9L34.2 29.549l-8.438-12.707h5.974l5.6 8.872 5.676-8.872h5.899L40.398 29.55zm20.834 3.684v9.399h-5.078v-25.79h10.454c6.124 0 9.335 3.233 9.335 8.196 0 4.962-3.286 8.195-9.335 8.195h-5.376zm0-11.654v6.917h5.227c2.763 0 4.256-1.127 4.256-3.458 0-2.331-1.418-3.459-4.256-3.459h-5.227zm41.22 21.053H83.783v-25.79h5.078V37.82h13.516v4.812h.075zm64.592-25.79c6.123 0 9.409 2.933 9.409 7.82 0 4.21-2.913 7.143-7.841 7.594l7.915 10.3h-6.272l-7.468-10.225h-1.493v10.225h-6.078l1-2.857V20.271l-1-3.429h11.828zm-5.75 4.737v6.316h5.6c2.763 0 4.257-1.053 4.257-3.233 0-2.106-1.494-3.083-4.257-3.083h-5.6zm28.376 21.053h-5.078v-25.79h5.078v25.79zm26.658-19.248c-2.016-1.279-4.48-2.18-7.243-2.18-2.838 0-4.929 1.127-4.929 3.082 0 1.88 2.24 2.481 5.302 3.007l1.419.226c4.555.752 8.139 2.707 8.139 7.218 0 5.714-5.003 8.421-10.454 8.421-3.883 0-8.065-1.128-10.828-3.383l2.689-4.136c1.866 1.504 4.853 2.782 8.139 2.782 2.838 0 5.003-1.128 5.003-3.083 0-1.804-1.867-2.48-5.451-3.007l-1.643-.226c-4.555-.752-7.841-2.706-7.841-7.368 0-5.414 4.78-8.196 10.231-8.196 3.584 0 6.571.828 9.782 2.782l-2.315 4.06z" fill="#000"/><path d="M128.96 0c-16.428 0-29.794 13.459-29.794 30s13.366 30 29.794 30c16.429 0 29.795-13.459 29.795-30S145.389 0 128.96 0zm-11.051 50.451c-13.516-7.293-19.565-22.33-13.516-33.609 6.049-11.278 21.805-14.436 35.32-7.143 13.516 7.293 19.565 22.331 13.516 33.61-5.974 11.278-21.804 14.435-35.32 7.142z" fill="#000"/></svg>