<?xml version="1.0" encoding="utf-8"?>
<!-- Generator: Adobe Illustrator 25.2.2, SVG Export Plug-In . SVG Version: 6.00 Build 0)  -->
<svg version="1.1" id="Ebene_1" width="145" xmlns="http://www.w3.org/2000/svg" xmlns:xlink="http://www.w3.org/1999/xlink" x="0px" y="0px"
	 viewBox="0 0 566.93 96.38" style="enable-background:new 0 0 566.93 96.38;" xml:space="preserve">
<style type="text/css">
	.st0{fill:#2D8692;}
</style>
<polygon points="5.73,5.73 5.73,90.77 16.09,90.77 16.09,15.12 52.93,47.47 58.01,41.64 20.23,5.73 "/>
<polygon class="st0" points="84.69,90.77 84.69,5.73 74.33,5.73 74.33,81.39 37.5,49.04 32.41,54.86 70.2,90.77 "/>
<g>
	<path d="M196.39,18.17v60.23h-7.53l-41.01-52.08v52.08h-7.71V18.17h10.98l37.55,47.65V18.17H196.39z"/>
	<path d="M230.24,25.07v19.4h38.79v6.91h-38.79v20.1h44.55v6.91h-52.52V18.17h52.52v6.91H230.24z"/>
	<path d="M367.97,78.39H360V27.2l-23.91,51.19h-6.47L305.71,27.2v51.19h-7.71V18.17h11.6l23.38,50.04l23.38-50.04h11.6V78.39z"/>
	<path d="M393.85,18.17h7.97v60.23h-7.97V18.17z"/>
	<path d="M427.7,56.48V18.13h7.97v37.02c0,11.25,6.82,17,20.02,17s20.02-5.76,20.02-17V18.13h7.71v38.26
		c0,14.7-10.01,23.03-27.81,23.03C437.7,79.41,427.7,71.18,427.7,56.48z"/>
	<path d="M504.91,70.52l3.81-6.47c6.73,5.23,15.77,8.15,25.33,8.15c12.49,0,19.13-3.72,19.13-10.98c0-5.76-5.4-8.24-19.66-9.21
		c-18.78-1.24-26.13-5.94-26.13-16.74c0-11.34,9.65-18.16,25.86-18.16c9.65,0,17.98,2.48,24.53,7.26l-3.54,6.47
		c-5.76-4.25-13.11-6.47-21.61-6.47c-10.63,0-17.09,3.99-17.09,10.63c0,5.76,5.31,8.24,19.66,9.21
		c18.78,1.24,26.13,5.94,26.13,16.74c0,11.96-9.74,18.51-27.37,18.51C522.62,79.47,512.26,76.28,504.91,70.52z"/>
</g>
</svg>
