<svg width="24" height="23" viewBox="0 0 24 23" fill="none" xmlns="http://www.w3.org/2000/svg">
<g id="Atoms/Icons/Warning">
<path id="!" d="M12.7955 7L12.6818 15.3636H11.3636L11.25 7H12.7955ZM12.0227 18.7273C11.7424 18.7273 11.5019 18.6269 11.3011 18.4261C11.1004 18.2254 11 17.9848 11 17.7045C11 17.4242 11.1004 17.1837 11.3011 16.983C11.5019 16.7822 11.7424 16.6818 12.0227 16.6818C12.303 16.6818 12.5436 16.7822 12.7443 16.983C12.9451 17.1837 13.0455 17.4242 13.0455 17.7045C13.0455 17.8902 12.9981 18.0606 12.9034 18.2159C12.8125 18.3712 12.6894 18.4962 12.5341 18.5909C12.3826 18.6818 12.2121 18.7273 12.0227 18.7273Z" fill="#E20909"/>
<path id="Vector 3 (Stroke)" fill-rule="evenodd" clip-rule="evenodd" d="M12 0C12.3378 0 12.6486 0.18323 12.8104 0.477719L23.8873 20.6444C24.0433 20.9284 24.037 21.2731 23.8707 21.5513C23.7044 21.8295 23.4027 22 23.0769 22H0.923077C0.597289 22 0.295627 21.8295 0.129324 21.5513C-0.0369789 21.2731 -0.0432923 20.9284 0.112712 20.6444L11.1896 0.477719C11.3514 0.18323 11.6622 0 12 0ZM2.47804 20.1667H21.522L12 2.83097L2.47804 20.1667Z" fill="#E20909"/>
</g>
</svg>
