<?xml version="1.0" encoding="UTF-8"?>
<svg width="60px" height="60px" viewBox="0 0 60 60" version="1.1" xmlns="http://www.w3.org/2000/svg" xmlns:xlink="http://www.w3.org/1999/xlink">
    <title>logo</title>
    <defs>
        <polygon id="path-1" points="0 59.441 254.121 59.441 254.121 0 0 0"></polygon>
        <polygon id="path-3" points="0 0 59.4402482 0 59.4402482 59.441 0 59.441"></polygon>
    </defs>
    <g id="logo" stroke="none" stroke-width="1" fill="none" fill-rule="evenodd">
		<g id="Group-26">
			<path d="M4.9369,19.4347 C4.3109,19.4347 3.6759,19.2777 3.0919,18.9467 C1.2899,17.9267 0.6569,15.6377 1.6779,13.8357 C4.7149,8.4727 9.2009,4.1147 14.6489,1.2327 C16.4819,0.2647 18.7489,0.9637 19.7179,2.7937 C20.6859,4.6247 19.9869,6.8937 18.1559,7.8627 C13.9759,10.0737 10.5339,13.4177 8.2029,17.5327 C7.5129,18.7507 6.2439,19.4347 4.9369,19.4347" id="Fill-21" fill="#28348A"></path>
			<g id="Group-25">
				<mask id="mask-4" fill="white">
					<use xlink:href="#path-3"></use>
				</mask>
				<g id="Clip-24"></g>
				<path d="M29.767,59.441 C24.755,59.441 19.755,58.172 15.358,55.747 C9.782,52.67 5.265,47.781 2.638,41.978 C0.011,36.176 -0.682,29.556 0.685,23.335 C0.834,22.662 1.502,22.234 2.175,22.383 C2.849,22.531 3.275,23.198 3.127,23.872 C1.874,29.569 2.51,35.633 4.915,40.947 C7.321,46.261 11.458,50.74 16.566,53.557 C21.672,56.376 27.664,57.488 33.446,56.689 C39.225,55.89 44.693,53.194 48.845,49.096 C52.996,44.999 55.764,39.566 56.638,33.798 C57.512,28.031 56.478,22.023 53.727,16.878 C50.976,11.735 46.552,7.539 41.27,5.064 C35.988,2.589 29.933,1.876 24.22,3.053 C23.543,3.19 22.882,2.758 22.743,2.082 C22.603,1.405 23.038,0.744 23.715,0.605 C29.952,-0.682 36.563,0.099 42.33,2.8 C48.098,5.503 52.928,10.084 55.932,15.7 C58.935,21.316 60.064,27.877 59.11,34.173 C58.156,40.47 55.134,46.402 50.6,50.876 C46.068,55.349 40.098,58.294 33.788,59.166 C32.455,59.35 31.11,59.441 29.767,59.441" id="Fill-23" fill="#28348A" mask="url(#mask-4)"></path>
			</g>
		</g>
    </g>
</svg>